<?xml version="1.0" encoding="UTF-8"?>
<!DOCTYPE svg PUBLIC "-//W3C//DTD SVG 1.1//EN" "http://www.w3.org/Graphics/SVG/1.1/DTD/svg11.dtd">
<svg xmlns="http://www.w3.org/2000/svg" version="1.1" width="500px" height="500px" style="shape-rendering:geometricPrecision; text-rendering:geometricPrecision; image-rendering:optimizeQuality; fill-rule:evenodd; clip-rule:evenodd" xmlns:xlink="http://www.w3.org/1999/xlink">
<g><path style="opacity:1" fill="#fefefe" d="M -0.5,-0.5 C 166.167,-0.5 332.833,-0.5 499.5,-0.5C 499.5,166.167 499.5,332.833 499.5,499.5C 332.833,499.5 166.167,499.5 -0.5,499.5C -0.5,332.833 -0.5,166.167 -0.5,-0.5 Z"/></g>
<g><path style="opacity:1" fill="#68aff3" d="M 251.5,58.5 C 252.209,59.404 253.209,59.7373 254.5,59.5C 254.5,61.1667 254.5,62.8333 254.5,64.5C 250.958,64.1872 247.625,64.5206 244.5,65.5C 240.802,65.5524 237.135,65.8857 233.5,66.5C 233.5,64.5 233.5,62.5 233.5,60.5C 231.833,60.5 230.167,60.5 228.5,60.5C 235.923,58.7454 243.589,58.0787 251.5,58.5 Z"/></g>
<g><path style="opacity:1" fill="#b0d6f9" d="M 251.5,58.5 C 259.961,58.6456 268.294,59.6456 276.5,61.5C 276.5,62.8333 276.5,64.1667 276.5,65.5C 275.167,65.5 273.833,65.5 272.5,65.5C 263.167,65.5 253.833,65.5 244.5,65.5C 247.625,64.5206 250.958,64.1872 254.5,64.5C 254.5,62.8333 254.5,61.1667 254.5,59.5C 253.209,59.7373 252.209,59.404 251.5,58.5 Z"/></g>
<g><path style="opacity:1" fill="#3694ef" d="M 228.5,60.5 C 230.167,60.5 231.833,60.5 233.5,60.5C 233.5,62.5 233.5,64.5 233.5,66.5C 176.685,79.1484 141.518,113.815 128,170.5C 121.045,220.318 136.211,261.818 173.5,295C 190.206,308.685 209.206,317.518 230.5,321.5C 231.369,323.717 231.702,326.05 231.5,328.5C 230.167,328.5 228.833,328.5 227.5,328.5C 177.868,318.931 143.035,290.931 123,244.5C 102.555,183.107 116.388,130.941 164.5,88C 183.362,73.101 204.695,63.9344 228.5,60.5 Z"/></g>
<g><path style="opacity:1" fill="#e5f1fd" d="M 276.5,61.5 C 294.565,64.8693 310.899,72.036 325.5,83C 324.5,83.6667 323.5,83.6667 322.5,83C 306.821,74.053 290.155,68.2196 272.5,65.5C 273.833,65.5 275.167,65.5 276.5,65.5C 276.5,64.1667 276.5,62.8333 276.5,61.5 Z"/></g>
<g><path style="opacity:1" fill="#81cc2d" d="M 231.5,172.5 C 231.5,174.833 231.5,177.167 231.5,179.5C 219.5,179.5 207.5,179.5 195.5,179.5C 195.5,167.5 195.5,155.5 195.5,143.5C 207.678,143.828 219.678,143.495 231.5,142.5C 231.5,130.5 231.5,118.5 231.5,106.5C 241.839,106.334 252.172,106.5 262.5,107C 260.291,108.873 258.458,111.04 257,113.5C 256.695,129.679 258.362,145.679 262,161.5C 263.74,168.149 266.907,173.983 271.5,179C 270.552,179.483 269.552,179.649 268.5,179.5C 268.666,189.839 268.5,200.172 268,210.5C 251.771,219.553 241.104,215.22 236,197.5C 235.511,187.481 235.844,177.481 237,167.5C 242.745,161.85 242.912,156.017 237.5,150C 224.305,144.861 218.138,149.361 219,163.5C 219.5,164.5 220,165.5 220.5,166.5C 224.007,169.189 227.674,171.189 231.5,172.5 Z"/></g>
<g><path style="opacity:1" fill="#84cd34" d="M 265.5,108.5 C 266.5,108.5 267.5,108.5 268.5,108.5C 268.5,119.833 268.5,131.167 268.5,142.5C 280.5,142.5 292.5,142.5 304.5,142.5C 304.666,149.175 304.5,155.842 304,162.5C 300.405,168.882 295.572,174.049 289.5,178C 279.483,180.638 272.649,177.138 269,167.5C 265.758,156.562 262.758,145.562 260,134.5C 259.333,127.833 259.333,121.167 260,114.5C 261.36,111.977 263.193,109.977 265.5,108.5 Z"/></g>
<g><path style="opacity:1" fill="#1e619f" d="M 247.5,322.5 C 247.167,322.5 246.833,322.5 246.5,322.5C 243.803,317.294 240.137,312.794 235.5,309C 210.93,291.876 187.263,273.543 164.5,254C 155.849,245.02 148.349,235.186 142,224.5C 140.034,214.774 139.2,204.941 139.5,195C 139.652,176.757 140.819,158.59 143,140.5C 144.727,137.717 147.227,136.05 150.5,135.5C 151.633,131.19 154.3,129.69 158.5,131C 160.667,131.833 162.167,133.333 163,135.5C 163.499,139.152 163.665,142.818 163.5,146.5C 165.39,146.297 166.89,146.963 168,148.5C 170.584,152.833 172.251,157.5 173,162.5C 173.331,180.525 172.997,198.525 172,216.5C 184.212,230.38 198.046,242.547 213.5,253C 215.65,254.411 217.984,255.245 220.5,255.5C 220.559,251.452 218.892,248.285 215.5,246C 204.208,237.765 193.374,228.932 183,219.5C 171.726,205.08 174.893,199.913 192.5,204C 207.802,211.983 222.469,220.983 236.5,231C 249.65,242.641 255.983,257.308 255.5,275C 254.738,291.174 252.071,307.007 247.5,322.5 Z"/></g>
<g><path style="opacity:1" fill="#1e619f" d="M 272.5,321.5 C 272.167,321.5 271.833,321.5 271.5,321.5C 265.032,302.72 262.532,283.387 264,263.5C 265.99,249.683 272.49,238.517 283.5,230C 297.165,220.832 311.165,212.165 325.5,204C 330.86,202.056 336.193,202.056 341.5,204C 342.708,208.147 341.874,211.98 339,215.5C 334.5,220 330,224.5 325.5,229C 316.377,235.788 307.544,242.954 299,250.5C 298.202,252.259 298.369,253.926 299.5,255.5C 317.751,245.456 333.585,232.456 347,216.5C 345.829,198.533 345.496,180.533 346,162.5C 346.592,158.724 347.592,155.057 349,151.5C 349.996,149.34 351.496,147.673 353.5,146.5C 355.388,144.012 356.055,141.012 355.5,137.5C 357.073,131.38 360.74,129.547 366.5,132C 367.293,133.085 367.96,134.252 368.5,135.5C 371.421,136.543 373.921,138.21 376,140.5C 377.767,158.449 378.601,176.449 378.5,194.5C 378.628,204.237 378.128,213.904 377,223.5C 373.75,230.34 369.75,236.673 365,242.5C 358.5,249 352,255.5 345.5,262C 325.858,277.487 305.858,292.487 285.5,307C 279.904,310.759 275.571,315.592 272.5,321.5 Z"/></g>
<g><path style="opacity:1" fill="#90b1d0" d="M 355.5,137.5 C 356.055,141.012 355.388,144.012 353.5,146.5C 354.088,143.39 354.755,140.39 355.5,137.5 Z"/></g>
<g><path style="opacity:1" fill="#b3e182" d="M 231.5,142.5 C 219.678,143.495 207.678,143.828 195.5,143.5C 195.5,155.5 195.5,167.5 195.5,179.5C 195.167,179.5 194.833,179.5 194.5,179.5C 194.5,167.167 194.5,154.833 194.5,142.5C 206.833,142.5 219.167,142.5 231.5,142.5 Z"/></g>
<g><path style="opacity:1" fill="#83cd31" d="M 303.5,171.5 C 304.473,173.948 304.806,176.615 304.5,179.5C 302.143,179.663 299.81,179.497 297.5,179C 300.118,176.894 302.118,174.394 303.5,171.5 Z"/></g>
<g><path style="opacity:1" fill="#dcf1c6" d="M 231.5,172.5 C 232.473,174.948 232.806,177.615 232.5,180.5C 219.656,180.829 206.989,180.495 194.5,179.5C 194.833,179.5 195.167,179.5 195.5,179.5C 207.5,179.5 219.5,179.5 231.5,179.5C 231.5,177.167 231.5,174.833 231.5,172.5 Z"/></g>
<g><path style="opacity:1" fill="#88cf3a" d="M 231.5,200.5 C 233.163,206.639 236.496,211.806 241.5,216C 238.183,216.498 234.85,216.665 231.5,216.5C 231.5,211.167 231.5,205.833 231.5,200.5 Z"/></g>
<g><path style="opacity:1" fill="#c6e0f9" d="M 270.5,328.5 C 270.5,327.167 270.5,325.833 270.5,324.5C 263.833,324.5 257.167,324.5 250.5,324.5C 247.941,324.802 245.607,324.468 243.5,323.5C 244.791,323.737 245.791,323.404 246.5,322.5C 246.833,322.5 247.167,322.5 247.5,322.5C 251.319,323.166 255.319,323.499 259.5,323.5C 263.893,323.491 267.893,322.824 271.5,321.5C 271.833,321.5 272.167,321.5 272.5,321.5C 274.628,322.629 276.961,322.796 279.5,322C 285.889,320.653 292.222,319.153 298.5,317.5C 298.762,318.978 298.429,320.311 297.5,321.5C 288.786,324.929 279.786,327.262 270.5,328.5 Z"/></g>
<g><path style="opacity:1" fill="#6bb1f3" d="M 230.5,321.5 C 234.705,322.91 239.038,323.577 243.5,323.5C 245.607,324.468 247.941,324.802 250.5,324.5C 250.5,326.5 250.5,328.5 250.5,330.5C 242.597,330.864 234.93,330.197 227.5,328.5C 228.833,328.5 230.167,328.5 231.5,328.5C 231.702,326.05 231.369,323.717 230.5,321.5 Z"/></g>
<g><path style="opacity:1" fill="#9acaf7" d="M 250.5,324.5 C 257.167,324.5 263.833,324.5 270.5,324.5C 270.5,325.833 270.5,327.167 270.5,328.5C 263.918,329.822 257.251,330.489 250.5,330.5C 250.5,328.5 250.5,326.5 250.5,324.5 Z"/></g>
<g><path style="opacity:1" fill="#3795ef" d="M 114.5,351.5 C 120.402,350.962 126.068,351.795 131.5,354C 134.62,356.408 135.953,359.574 135.5,363.5C 130.779,364.268 126.779,363.101 123.5,360C 121.5,359.333 119.5,359.333 117.5,360C 116.167,361.667 116.167,363.333 117.5,365C 122.916,367.139 128.249,369.472 133.5,372C 138.001,378.815 137.001,384.815 130.5,390C 124.5,392 118.5,392 112.5,390C 108.568,387.576 106.568,384.076 106.5,379.5C 111.221,378.732 115.221,379.899 118.5,383C 121.099,383.769 123.599,383.602 126,382.5C 126.72,380.888 126.554,379.388 125.5,378C 120.833,376 116.167,374 111.5,372C 104.072,363.824 105.072,356.991 114.5,351.5 Z"/></g>
<g><path style="opacity:1" fill="#3694ef" d="M 328.5,360.5 C 325.663,362.402 322.329,363.069 318.5,362.5C 317.27,359.053 314.936,358.053 311.5,359.5C 310.369,361.074 310.202,362.741 311,364.5C 316.882,367.125 322.548,370.125 328,373.5C 331.354,381.95 328.854,387.783 320.5,391C 313.436,392.745 307.269,391.245 302,386.5C 300.589,384.35 299.755,382.016 299.5,379.5C 303.167,379.5 306.833,379.5 310.5,379.5C 310.237,382.734 311.737,384.068 315,383.5C 318.939,383.896 320.272,382.229 319,378.5C 314.302,376.151 309.469,373.984 304.5,372C 297.193,364.148 298.193,357.482 307.5,352C 315.497,349.955 322.331,351.788 328,357.5C 328.483,358.448 328.649,359.448 328.5,360.5 Z"/></g>
<g><path style="opacity:1" fill="#3394ef" d="M 142.5,351.5 C 145.5,351.5 148.5,351.5 151.5,351.5C 151.334,360.173 151.5,368.84 152,377.5C 152.575,381.242 154.741,382.908 158.5,382.5C 161.325,382.881 163.491,381.881 165,379.5C 165.5,370.173 165.666,360.839 165.5,351.5C 168.833,351.5 172.167,351.5 175.5,351.5C 175.926,361.912 175.426,372.246 174,382.5C 170.939,389.049 165.773,392.049 158.5,391.5C 150.885,392.064 145.718,388.731 143,381.5C 142.5,371.506 142.334,361.506 142.5,351.5 Z"/></g>
<g><path style="opacity:1" fill="#3594ef" d="M 182.5,351.5 C 189.508,351.334 196.508,351.5 203.5,352C 213.125,355.752 215.625,362.252 211,371.5C 209.269,373.617 207.102,375.117 204.5,376C 207.5,381 210.5,386 213.5,391C 209.833,391.667 206.167,391.667 202.5,391C 199.611,386.047 196.611,381.213 193.5,376.5C 192.506,381.456 192.173,386.456 192.5,391.5C 189.167,391.5 185.833,391.5 182.5,391.5C 182.5,378.167 182.5,364.833 182.5,351.5 Z"/></g>
<g><path style="opacity:1" fill="#3695ef" d="M 230.5,351.5 C 234.555,351.176 238.555,351.509 242.5,352.5C 247.363,365.09 252.03,377.756 256.5,390.5C 253.167,391.833 249.833,391.833 246.5,390.5C 245.833,388.833 245.167,387.167 244.5,385.5C 239.208,384.505 233.875,384.172 228.5,384.5C 228.007,386.806 227.674,389.139 227.5,391.5C 223.818,391.665 220.152,391.499 216.5,391C 221.468,377.928 226.135,364.762 230.5,351.5 Z"/></g>
<g><path style="opacity:1" fill="#3293ef" d="M 270.5,351.5 C 270.171,357.206 270.505,362.872 271.5,368.5C 272.107,368.376 272.44,368.043 272.5,367.5C 275.913,362.352 279.58,357.352 283.5,352.5C 287.459,351.34 291.459,351.173 295.5,352C 290.309,358.357 285.309,364.857 280.5,371.5C 285.259,378.015 290.259,384.348 295.5,390.5C 291.5,391.833 287.5,391.833 283.5,390.5C 279.58,385.648 275.913,380.648 272.5,375.5C 272.44,374.957 272.107,374.624 271.5,374.5C 270.505,380.128 270.171,385.794 270.5,391.5C 267.5,391.5 264.5,391.5 261.5,391.5C 261.5,378.167 261.5,364.833 261.5,351.5C 264.5,351.5 267.5,351.5 270.5,351.5 Z"/></g>
<g><path style="opacity:1" fill="#96c8f6" d="M 270.5,351.5 C 271.167,356.833 271.833,362.167 272.5,367.5C 272.44,368.043 272.107,368.376 271.5,368.5C 270.505,362.872 270.171,357.206 270.5,351.5 Z"/></g>
<g><path style="opacity:1" fill="#3995ef" d="M 335.5,351.5 C 338.833,351.5 342.167,351.5 345.5,351.5C 345.5,356.833 345.5,362.167 345.5,367.5C 350.5,367.5 355.5,367.5 360.5,367.5C 360.5,362.167 360.5,356.833 360.5,351.5C 363.833,351.5 367.167,351.5 370.5,351.5C 370.5,364.833 370.5,378.167 370.5,391.5C 367.167,391.5 363.833,391.5 360.5,391.5C 360.5,386.167 360.5,380.833 360.5,375.5C 355.5,375.5 350.5,375.5 345.5,375.5C 345.5,380.833 345.5,386.167 345.5,391.5C 342.167,391.5 338.833,391.5 335.5,391.5C 335.5,378.167 335.5,364.833 335.5,351.5 Z"/></g>
<g><path style="opacity:1" fill="#3695ef" d="M 388.5,351.5 C 392.997,350.945 397.164,351.611 401,353.5C 405.205,365.948 409.705,378.282 414.5,390.5C 410.893,391.489 407.226,391.823 403.5,391.5C 403.326,389.139 402.993,386.806 402.5,384.5C 397.125,384.172 391.792,384.505 386.5,385.5C 385.833,387.167 385.167,388.833 384.5,390.5C 381.167,391.833 377.833,391.833 374.5,390.5C 379.459,377.587 384.126,364.587 388.5,351.5 Z"/></g>
<g><path style="opacity:1" fill="#a3cef7" d="M 200.5,360.5 C 197.833,360.5 195.167,360.5 192.5,360.5C 192.5,363.5 192.5,366.5 192.5,369.5C 191.521,366.375 191.187,363.042 191.5,359.5C 194.713,359.19 197.713,359.523 200.5,360.5 Z"/></g>
<g><path style="opacity:1" fill="#fbfcfe" d="M 200.5,360.5 C 204.448,363.25 204.448,366.084 200.5,369C 197.854,369.497 195.187,369.664 192.5,369.5C 192.5,366.5 192.5,363.5 192.5,360.5C 195.167,360.5 197.833,360.5 200.5,360.5 Z"/></g>
<g><path style="opacity:1" fill="#91c5f6" d="M 328.5,360.5 C 329.404,361.209 329.737,362.209 329.5,363.5C 325.629,363.815 321.962,363.482 318.5,362.5C 322.329,363.069 325.663,362.402 328.5,360.5 Z"/></g>
<g><path style="opacity:1" fill="#f1f7fd" d="M 235.5,363.5 C 238.814,367.003 240.481,371.337 240.5,376.5C 237.833,376.5 235.167,376.5 232.5,376.5C 233.293,372.12 234.293,367.786 235.5,363.5 Z"/></g>
<g><path style="opacity:1" fill="#f2f8fe" d="M 393.5,363.5 C 396.495,367.126 398.162,371.459 398.5,376.5C 395.833,376.5 393.167,376.5 390.5,376.5C 391.293,372.12 392.293,367.786 393.5,363.5 Z"/></g>
<g><path style="opacity:1" fill="#94c7f6" d="M 272.5,375.5 C 271.833,380.833 271.167,386.167 270.5,391.5C 270.171,385.794 270.505,380.128 271.5,374.5C 272.107,374.624 272.44,374.957 272.5,375.5 Z"/></g>
<g><path style="opacity:1" fill="#81cc2d" d="M 59.5,413.5 C 66.1667,413.5 72.8333,413.5 79.5,413.5C 79.5,415.167 79.5,416.833 79.5,418.5C 74.8333,418.5 70.1667,418.5 65.5,418.5C 65.5,420.833 65.5,423.167 65.5,425.5C 69.8333,425.5 74.1667,425.5 78.5,425.5C 78.5,427.167 78.5,428.833 78.5,430.5C 74.1667,430.5 69.8333,430.5 65.5,430.5C 65.5,433.833 65.5,437.167 65.5,440.5C 63.5,440.5 61.5,440.5 59.5,440.5C 59.5,431.5 59.5,422.5 59.5,413.5 Z"/></g>
<g><path style="opacity:1" fill="#87ce39" d="M 195.5,414.5 C 197.628,413.371 199.961,413.204 202.5,414C 204.709,417.586 207.043,421.086 209.5,424.5C 211.957,421.086 214.291,417.586 216.5,414C 218.5,413.333 220.5,413.333 222.5,414C 219.459,419.25 216.292,424.417 213,429.5C 212.501,433.152 212.335,436.818 212.5,440.5C 210.167,440.5 207.833,440.5 205.5,440.5C 205.665,436.818 205.499,433.152 205,429.5C 202.308,424.097 199.142,419.097 195.5,414.5 Z"/></g>
<g><path style="opacity:1" fill="#82cc2f" d="M 367.5,427.5 C 367.783,428.289 368.283,428.956 369,429.5C 369.499,424.177 369.666,418.844 369.5,413.5C 371.5,413.5 373.5,413.5 375.5,413.5C 375.5,422.5 375.5,431.5 375.5,440.5C 373.473,440.662 371.473,440.495 369.5,440C 365.713,434.544 361.546,429.377 357,424.5C 356.501,429.823 356.334,435.156 356.5,440.5C 354.5,440.5 352.5,440.5 350.5,440.5C 350.5,431.5 350.5,422.5 350.5,413.5C 352.527,413.338 354.527,413.505 356.5,414C 360.305,418.478 363.972,422.978 367.5,427.5 Z"/></g>
<g><path style="opacity:1" fill="#d3edb6" d="M 369.5,413.5 C 369.666,418.844 369.499,424.177 369,429.5C 368.283,428.956 367.783,428.289 367.5,427.5C 368.167,422.833 368.833,418.167 369.5,413.5 Z"/></g>
<g><path style="opacity:1" fill="#85ce35" d="M 104.5,419.5 C 115.331,418.171 120.497,422.838 120,433.5C 116.392,440.074 110.892,442.241 103.5,440C 95.2702,432.768 95.6035,425.935 104.5,419.5 Z"/></g>
<g><path style="opacity:1" fill="#8cd042" d="M 152.5,419.5 C 152.5,421.167 152.5,422.833 152.5,424.5C 151.209,424.263 150.209,424.596 149.5,425.5C 148.542,425.953 147.708,426.619 147,427.5C 146.501,431.821 146.334,436.154 146.5,440.5C 144.167,440.5 141.833,440.5 139.5,440.5C 139.5,433.5 139.5,426.5 139.5,419.5C 142.144,419.16 144.477,419.827 146.5,421.5C 148.173,419.914 150.173,419.247 152.5,419.5 Z"/></g>
<g><path style="opacity:1" fill="#84cd34" d="M 245.5,419.5 C 257.531,417.726 262.698,422.726 261,434.5C 260.215,436.286 259.049,437.786 257.5,439C 244.584,443.404 238.751,438.904 240,425.5C 241.36,422.977 243.193,420.977 245.5,419.5 Z"/></g>
<g><path style="opacity:1" fill="#85ce35" d="M 402.5,419.5 C 413.331,418.171 418.497,422.838 418,433.5C 414.392,440.074 408.892,442.241 401.5,440C 393.27,432.768 393.604,425.935 402.5,419.5 Z"/></g>
<g><path style="opacity:1" fill="#82cc2f" d="M 281.5,419.5 C 283.5,419.5 285.5,419.5 287.5,419.5C 287.334,424.179 287.501,428.845 288,433.5C 291.012,436.25 293.679,435.917 296,432.5C 296.499,428.179 296.666,423.846 296.5,419.5C 298.5,419.5 300.5,419.5 302.5,419.5C 302.5,426.5 302.5,433.5 302.5,440.5C 299.921,440.917 297.754,440.25 296,438.5C 292.817,440.523 289.317,441.023 285.5,440C 283.951,438.786 282.785,437.286 282,435.5C 281.501,430.177 281.334,424.844 281.5,419.5 Z"/></g>
<g><path style="opacity:1" fill="#86ce36" d="M 435.5,419.5 C 437.604,419.201 439.604,419.534 441.5,420.5C 442.902,424.539 444.402,428.539 446,432.5C 447.807,428.244 449.307,423.911 450.5,419.5C 452.604,419.201 454.604,419.534 456.5,420.5C 457.902,424.539 459.402,428.539 461,432.5C 463.202,428.394 464.702,424.06 465.5,419.5C 467.604,419.201 469.604,419.534 471.5,420.5C 468.761,427.051 466.428,433.718 464.5,440.5C 462.167,440.5 459.833,440.5 457.5,440.5C 456.768,436.304 455.435,432.304 453.5,428.5C 451.905,432.117 450.405,435.783 449,439.5C 446.861,440.769 444.695,440.769 442.5,439.5C 440.153,432.812 437.819,426.146 435.5,419.5 Z"/></g>
<g><path style="opacity:1" fill="#fafdf6" d="M 106.5,424.5 C 114.818,424.987 116.485,428.487 111.5,435C 105.333,436.167 102.833,433.667 104,427.5C 105.045,426.627 105.878,425.627 106.5,424.5 Z"/></g>
<g><path style="opacity:1" fill="#c7e8a1" d="M 152.5,419.5 C 153.461,421.265 153.795,423.265 153.5,425.5C 152.167,425.5 150.833,425.5 149.5,425.5C 150.209,424.596 151.209,424.263 152.5,424.5C 152.5,422.833 152.5,421.167 152.5,419.5 Z"/></g>
<g><path style="opacity:1" fill="#fbfdf8" d="M 247.5,424.5 C 255.618,424.382 257.618,427.882 253.5,435C 246.495,436.324 243.995,433.49 246,426.5C 246.717,425.956 247.217,425.289 247.5,424.5 Z"/></g>
<g><path style="opacity:1" fill="#fafdf6" d="M 404.5,424.5 C 412.818,424.987 414.485,428.487 409.5,435C 403.333,436.167 400.833,433.667 402,427.5C 403.045,426.627 403.878,425.627 404.5,424.5 Z"/></g>
</svg>
